<?xml version="1.0" standalone="no"?>
<!DOCTYPE svg PUBLIC "-//W3C//DTD SVG 20010904//EN"
 "http://www.w3.org/TR/2001/REC-SVG-20010904/DTD/svg10.dtd">
<svg version="1.0" xmlns="http://www.w3.org/2000/svg"
 width="376.000000pt" height="376.000000pt" viewBox="0 0 376.000000 376.000000"
 preserveAspectRatio="xMidYMid meet">
<metadata>
Created by potrace 1.14, written by Peter Selinger 2001-2017
</metadata>
<g transform="translate(0.000000,376.000000) scale(0.100000,-0.100000)"
fill="#000000" stroke="none">
<path d="M410 3210 l0 -80 1465 0 1465 0 0 80 0 80 -1465 0 -1465 0 0 -80z"/>
<path d="M419 2963 c-1 -5 -2 -488 -3 -1076 l-1 -1067 195 2 194 3 0 742 c0
409 3 739 7 735 4 -4 12 -41 19 -82 6 -41 14 -88 16 -105 3 -16 6 -39 8 -50 2
-11 6 -33 9 -50 3 -16 9 -46 11 -65 3 -19 19 -116 36 -215 17 -99 33 -191 35
-205 8 -49 14 -85 19 -115 3 -16 12 -73 21 -125 20 -119 17 -103 50 -302 l28
-168 193 0 192 0 6 27 c5 25 19 113 32 198 3 17 10 57 16 90 5 33 12 74 13 90
2 17 15 98 29 180 14 83 28 170 31 195 3 25 10 70 15 100 5 30 12 71 16 90 3
19 7 47 9 62 5 36 33 207 45 278 5 30 12 75 15 100 4 25 10 61 14 80 4 19 8
-300 8 -710 1 -410 2 -753 2 -762 1 -17 17 -18 196 -18 l195 0 0 1075 0 1075
-330 0 -329 0 -6 -32 c-5 -31 -8 -52 -21 -158 -3 -25 -7 -56 -9 -70 -3 -14 -9
-61 -15 -105 -6 -44 -15 -109 -20 -145 -15 -101 -41 -288 -56 -405 -3 -22 -9
-67 -14 -100 -5 -33 -12 -85 -15 -115 -4 -30 -10 -71 -14 -90 -4 -20 -7 -43
-5 -53 1 -9 -1 -15 -6 -12 -4 3 -11 37 -15 77 -4 40 -9 82 -11 93 -3 17 -8 54
-29 207 -3 18 -7 51 -10 73 -3 22 -7 56 -10 75 -3 19 -8 50 -10 68 -4 30 -10
74 -20 142 -7 51 -15 106 -20 150 -4 25 -8 56 -10 70 -2 14 -11 81 -20 148
-10 68 -18 131 -20 140 -2 10 -4 23 -4 30 -1 9 -73 12 -326 12 -179 0 -326 -3
-326 -7z"/>
<path d="M2280 1895 l0 -1075 210 0 210 0 2 528 3 527 24 -120 c12 -66 25
-129 27 -140 7 -37 14 -69 29 -145 8 -41 17 -86 20 -100 3 -14 12 -59 20 -100
8 -41 17 -86 20 -100 3 -14 10 -50 16 -80 6 -30 12 -59 13 -65 1 -5 11 -54 21
-107 l19 -98 210 0 211 0 -1 1068 c-1 587 -2 1070 -3 1075 0 4 -93 7 -206 7
l-205 0 0 -502 c0 -276 -2 -499 -4 -497 -2 2 -7 21 -10 42 -3 20 -17 92 -31
160 -13 67 -27 136 -29 152 -3 17 -8 41 -11 55 -5 23 -18 93 -31 165 -3 17
-11 62 -19 100 -8 39 -16 81 -19 95 -13 70 -26 138 -30 163 -12 72 7 67 -237
67 l-219 0 0 -1075z"/>
</g>
</svg>
