<svg width="400" height="400" viewBox="0 0 400 400" fill="none" xmlns="http://www.w3.org/2000/svg">
<path d="M157.9 86.8167C157.9 86.8167 82.8833 161.9 53.6667 191.133C51.2167 193.567 50 196.767 50 199.967C50 203.167 51.2167 206.367 53.6667 208.8C82.8667 238.033 157.867 313.083 157.867 313.083C160.283 315.5 163.467 316.7 166.65 316.7C169.833 316.683 173.033 315.467 175.483 313.017C180.367 308.133 180.383 300.25 175.55 295.4L92.6167 212.467H337.483C344.383 212.467 349.983 206.867 349.983 199.967C349.983 193.067 344.383 187.467 337.483 187.467H92.6167L175.583 104.483C180.4 99.6667 180.367 91.8 175.483 86.9167C173.033 84.4667 169.833 83.2333 166.65 83.2333C163.467 83.2167 160.317 84.4167 157.9 86.8167V86.8167Z" fill="#F4EBEB"/>
</svg>
