<svg width="400" height="400" viewBox="0 0 400 400" fill="none" xmlns="http://www.w3.org/2000/svg">
<path d="M152.417 304.833C68.3833 304.833 0 236.467 0 152.417C0 68.3667 68.3833 0 152.417 0C236.45 0 304.833 68.3833 304.833 152.417C304.833 236.45 236.467 304.833 152.417 304.833ZM152.417 52.05C97.0667 52.05 52.05 97.0833 52.05 152.417C52.05 207.75 97.0833 252.783 152.417 252.783C207.75 252.783 252.8 207.75 252.8 152.417C252.8 97.0833 207.767 52.05 152.417 52.05ZM306.8 259.433C293.183 279.033 275.933 295.9 256.033 309.117L346.9 400L397.133 349.783L306.8 259.433V259.433Z" fill="#F4EBEB"/>
</svg>
